<svg id="Layer_1" data-name="Layer 1" xmlns="http://www.w3.org/2000/svg" viewBox="0 0 490 680"><defs><style>.cls-1{fill:#fff;fill-rule:evenodd;}</style></defs><path class="cls-1" d="M3.7,33.86C3.7,15.16,25.52,0,52.44,0H436.33c26.91,0,48.73,15.16,48.73,33.86V145.61h.74c2.32,0,4.2,1.31,4.2,2.92v98.58c0,1.61-1.88,2.92-4.2,2.92h-.74V646.14c0,18.7-21.82,33.86-48.73,33.86H52.44C25.52,680,3.7,664.84,3.7,646.14V250c-2.08-.17-3.7-1.4-3.7-2.9v-42.8c0-1.49,1.62-2.72,3.7-2.89v-7.19c-2.08-.17-3.7-1.41-3.7-2.9v-42.8c0-1.5,1.62-2.73,3.7-2.9V122.71c-2.08-.17-3.7-1.41-3.7-2.9v-9.9c0-1.5,1.62-2.73,3.7-2.9Z"/></svg>